<mxfile host="" modified="2021-02-08T23:16:54.375Z" agent="5.0 (Macintosh; Intel Mac OS X 10_15_7) AppleWebKit/537.36 (KHTML, like Gecko) Chrome/84.0.4147.105 Safari/537.36" etag="Qzxm7TCgX8SGnRcxmFCj" version="13.7.9" type="embed"><diagram id="fwskY1HQL-udNzID6mZi" name="Page-1"><mxGraphModel dx="2558" dy="633" grid="1" gridSize="10" guides="1" tooltips="1" connect="1" arrows="1" fold="1" page="1" pageScale="1" pageWidth="827" pageHeight="1169" math="0" shadow="0"><root><mxCell id="0"/><mxCell id="1" parent="0"/><mxCell id="k0gJWanafnydEsKdQi3P-4" value="Extends" style="endArrow=block;endSize=16;endFill=0;html=1;" parent="1" source="k0gJWanafnydEsKdQi3P-13" target="k0gJWanafnydEsKdQi3P-83" edge="1"><mxGeometry width="160" relative="1" as="geometry"><mxPoint x="-178" y="729" as="sourcePoint"/><mxPoint x="-178" y="659" as="targetPoint"/></mxGeometry></mxCell><mxCell id="k0gJWanafnydEsKdQi3P-13" value="&lt;p style=&quot;margin: 0px ; margin-top: 4px ; text-align: center&quot;&gt;«interface»&lt;br&gt;&lt;b&gt;Merchant account&lt;/b&gt;&lt;/p&gt;&lt;hr size=&quot;1&quot;&gt;&lt;p style=&quot;margin: 0px 0px 0px 4px&quot;&gt;+ name(): String&lt;br&gt;&lt;/p&gt;&lt;p style=&quot;margin: 0px 0px 0px 4px&quot;&gt;+ information(): String&lt;/p&gt;" style="verticalAlign=top;align=left;overflow=fill;fontSize=12;fontFamily=Helvetica;html=1;" parent="1" vertex="1"><mxGeometry x="-263" y="730" width="190" height="79" as="geometry"/></mxCell><mxCell id="k0gJWanafnydEsKdQi3P-15" value="&lt;p style=&quot;margin: 0px ; margin-top: 4px ; text-align: center&quot;&gt;«interface»&lt;br&gt;&lt;b&gt;Transaction&lt;/b&gt;&lt;/p&gt;&lt;hr size=&quot;1&quot;&gt;&lt;p style=&quot;margin: 0px ; margin-left: 4px&quot;&gt;+ amount(): Money&lt;br&gt;&lt;/p&gt;&lt;p style=&quot;margin: 0px ; margin-left: 4px&quot;&gt;+ reference(): String&lt;/p&gt;&lt;p style=&quot;margin: 0px ; margin-left: 4px&quot;&gt;+ currency(): String&lt;/p&gt;&lt;p style=&quot;margin: 0px ; margin-left: 4px&quot;&gt;+ accountReference(): String&lt;/p&gt;&lt;p style=&quot;margin: 0px ; margin-left: 4px&quot;&gt;+ date(): LocaDateTime&lt;/p&gt;&lt;p style=&quot;margin: 0px ; margin-left: 4px&quot;&gt;+ designation(): String&lt;/p&gt;&lt;p style=&quot;margin: 0px ; margin-left: 4px&quot;&gt;+ clientReference() : String&lt;/p&gt;&lt;p style=&quot;margin: 0px ; margin-left: 4px&quot;&gt;+ operator():Operator&lt;/p&gt;&lt;p style=&quot;margin: 0px ; margin-left: 4px&quot;&gt;+ paymentCategory(): PaymentCategory&lt;/p&gt;&lt;p style=&quot;margin: 0px ; margin-left: 4px&quot;&gt;+&amp;nbsp;successfulPaymentUrl(): String&lt;/p&gt;&amp;nbsp;+ failedPaymentUrl():String&lt;br&gt;&amp;nbsp;+ language(): String&lt;br&gt;&lt;p style=&quot;margin: 0px ; margin-left: 4px&quot;&gt;+&amp;nbsp;metadata(): Map&amp;lt;String,String&amp;gt;&lt;/p&gt;" style="verticalAlign=top;align=left;overflow=fill;fontSize=12;fontFamily=Helvetica;html=1;" parent="1" vertex="1"><mxGeometry x="-1120" y="309" width="260" height="231" as="geometry"/></mxCell><mxCell id="k0gJWanafnydEsKdQi3P-16" value="«interface»&lt;br&gt;&lt;b&gt;Payment category&lt;/b&gt;" style="html=1;" parent="1" vertex="1"><mxGeometry x="-827" y="130" width="110" height="50" as="geometry"/></mxCell><mxCell id="k0gJWanafnydEsKdQi3P-19" value="&lt;p style=&quot;margin: 0px ; margin-top: 4px ; text-align: center&quot;&gt;«interface»&lt;br&gt;&lt;b&gt;Operator&lt;/b&gt;&lt;br&gt;&lt;/p&gt;&lt;hr size=&quot;1&quot;&gt;&lt;p style=&quot;margin: 0px ; margin-left: 4px&quot;&gt;+ name(): String&lt;br&gt;&lt;/p&gt;&lt;p style=&quot;margin: 0px ; margin-left: 4px&quot;&gt;+ description(): String&lt;/p&gt;" style="verticalAlign=top;align=left;overflow=fill;fontSize=12;fontFamily=Helvetica;html=1;" parent="1" vertex="1"><mxGeometry x="384" y="260" width="190" height="80" as="geometry"/></mxCell><mxCell id="k0gJWanafnydEsKdQi3P-20" value="&lt;p style=&quot;margin: 0px ; margin-top: 4px ; text-align: center&quot;&gt;«interface»&lt;br&gt;&lt;b&gt;Payment Platform&lt;/b&gt;&lt;/p&gt;&lt;hr size=&quot;1&quot;&gt;&lt;p style=&quot;margin: 0px ; margin-left: 4px&quot;&gt;+ name(): String&lt;br&gt;&lt;/p&gt;&lt;p style=&quot;margin: 0px ; margin-left: 4px&quot;&gt;+ description(): String&lt;br&gt;&lt;/p&gt;&lt;p style=&quot;margin: 0px ; margin-left: 4px&quot;&gt;+ connect merchant(): MerchantAccount&lt;/p&gt;&lt;p style=&quot;margin: 0px ; margin-left: 4px&quot;&gt;+ connectMerchant(String merchantUsernale,String merchantPassword):MerchantAccount&lt;/p&gt;" style="verticalAlign=top;align=left;overflow=fill;fontSize=12;fontFamily=Helvetica;html=1;" parent="1" vertex="1"><mxGeometry x="-406.12" y="240" width="492.25" height="120" as="geometry"/></mxCell><mxCell id="k0gJWanafnydEsKdQi3P-26" value="&lt;p style=&quot;margin: 0px ; margin-top: 4px ; text-align: center&quot;&gt;&lt;b&gt;Adjemin Pay&lt;/b&gt;&lt;/p&gt;&lt;hr size=&quot;1&quot;&gt;&lt;p style=&quot;margin: 0px ; margin-left: 4px&quot;&gt;+ field: Type&lt;/p&gt;&lt;hr size=&quot;1&quot;&gt;&lt;p style=&quot;margin: 0px ; margin-left: 4px&quot;&gt;+ method(): Type&lt;/p&gt;" style="verticalAlign=top;align=left;overflow=fill;fontSize=12;fontFamily=Helvetica;html=1;" parent="1" vertex="1"><mxGeometry x="-340" y="415" width="160" height="95" as="geometry"/></mxCell><mxCell id="k0gJWanafnydEsKdQi3P-27" value="&lt;p style=&quot;margin: 0px ; margin-top: 4px ; text-align: center&quot;&gt;&lt;b&gt;Cinet Pay&lt;/b&gt;&lt;/p&gt;&lt;hr size=&quot;1&quot;&gt;&lt;p style=&quot;margin: 0px ; margin-left: 4px&quot;&gt;+ field: Type&lt;/p&gt;&lt;hr size=&quot;1&quot;&gt;&lt;p style=&quot;margin: 0px ; margin-left: 4px&quot;&gt;+ method(): Type&lt;/p&gt;" style="verticalAlign=top;align=left;overflow=fill;fontSize=12;fontFamily=Helvetica;html=1;" parent="1" vertex="1"><mxGeometry x="-150" y="415" width="160" height="95" as="geometry"/></mxCell><mxCell id="k0gJWanafnydEsKdQi3P-28" value="" style="endArrow=block;dashed=1;endFill=0;endSize=12;html=1;edgeStyle=orthogonalEdgeStyle;" parent="1" source="k0gJWanafnydEsKdQi3P-26" target="k0gJWanafnydEsKdQi3P-20" edge="1"><mxGeometry width="160" relative="1" as="geometry"><mxPoint x="-490" y="335" as="sourcePoint"/><mxPoint x="-330" y="335" as="targetPoint"/><Array as="points"><mxPoint x="-390" y="460"/></Array></mxGeometry></mxCell><mxCell id="k0gJWanafnydEsKdQi3P-29" value="" style="endArrow=block;dashed=1;endFill=0;endSize=12;html=1;edgeStyle=orthogonalEdgeStyle;" parent="1" source="k0gJWanafnydEsKdQi3P-27" target="k0gJWanafnydEsKdQi3P-20" edge="1"><mxGeometry width="160" relative="1" as="geometry"><mxPoint x="-290" y="445" as="sourcePoint"/><mxPoint x="-130" y="445" as="targetPoint"/><Array as="points"><mxPoint x="50" y="460"/><mxPoint x="50" y="285"/></Array></mxGeometry></mxCell><mxCell id="k0gJWanafnydEsKdQi3P-33" value="" style="endArrow=block;dashed=1;endFill=0;endSize=12;html=1;edgeStyle=orthogonalEdgeStyle;" parent="1" source="k0gJWanafnydEsKdQi3P-40" target="k0gJWanafnydEsKdQi3P-15" edge="1"><mxGeometry width="160" relative="1" as="geometry"><mxPoint x="-1120" y="790" as="sourcePoint"/><mxPoint x="-1030" y="690" as="targetPoint"/></mxGeometry></mxCell><mxCell id="k0gJWanafnydEsKdQi3P-34" value="" style="endArrow=block;dashed=1;endFill=0;endSize=12;html=1;edgeStyle=orthogonalEdgeStyle;" parent="1" source="k0gJWanafnydEsKdQi3P-36" target="k0gJWanafnydEsKdQi3P-15" edge="1"><mxGeometry width="160" relative="1" as="geometry"><mxPoint x="-860" y="790" as="sourcePoint"/><mxPoint x="-740" y="700" as="targetPoint"/></mxGeometry></mxCell><mxCell id="k0gJWanafnydEsKdQi3P-36" value="Transaction Adjemin Pay" style="swimlane;fontStyle=1;align=center;verticalAlign=top;childLayout=stackLayout;horizontal=1;startSize=26;horizontalStack=0;resizeParent=1;resizeParentMax=0;resizeLast=0;collapsible=1;marginBottom=0;" parent="1" vertex="1"><mxGeometry x="-940" y="760" width="160" height="86" as="geometry"/></mxCell><mxCell id="k0gJWanafnydEsKdQi3P-37" value="+ field: type" style="text;strokeColor=none;fillColor=none;align=left;verticalAlign=top;spacingLeft=4;spacingRight=4;overflow=hidden;rotatable=0;points=[[0,0.5],[1,0.5]];portConstraint=eastwest;" parent="k0gJWanafnydEsKdQi3P-36" vertex="1"><mxGeometry y="26" width="160" height="26" as="geometry"/></mxCell><mxCell id="k0gJWanafnydEsKdQi3P-38" value="" style="line;strokeWidth=1;fillColor=none;align=left;verticalAlign=middle;spacingTop=-1;spacingLeft=3;spacingRight=3;rotatable=0;labelPosition=right;points=[];portConstraint=eastwest;" parent="k0gJWanafnydEsKdQi3P-36" vertex="1"><mxGeometry y="52" width="160" height="8" as="geometry"/></mxCell><mxCell id="k0gJWanafnydEsKdQi3P-39" value="+ method(type): type" style="text;strokeColor=none;fillColor=none;align=left;verticalAlign=top;spacingLeft=4;spacingRight=4;overflow=hidden;rotatable=0;points=[[0,0.5],[1,0.5]];portConstraint=eastwest;" parent="k0gJWanafnydEsKdQi3P-36" vertex="1"><mxGeometry y="60" width="160" height="26" as="geometry"/></mxCell><mxCell id="k0gJWanafnydEsKdQi3P-40" value="Transaction Cinet Pay" style="swimlane;fontStyle=1;align=center;verticalAlign=top;childLayout=stackLayout;horizontal=1;startSize=26;horizontalStack=0;resizeParent=1;resizeParentMax=0;resizeLast=0;collapsible=1;marginBottom=0;" parent="1" vertex="1"><mxGeometry x="-1210" y="760" width="160" height="86" as="geometry"/></mxCell><mxCell id="k0gJWanafnydEsKdQi3P-41" value="+ field: type" style="text;strokeColor=none;fillColor=none;align=left;verticalAlign=top;spacingLeft=4;spacingRight=4;overflow=hidden;rotatable=0;points=[[0,0.5],[1,0.5]];portConstraint=eastwest;" parent="k0gJWanafnydEsKdQi3P-40" vertex="1"><mxGeometry y="26" width="160" height="26" as="geometry"/></mxCell><mxCell id="k0gJWanafnydEsKdQi3P-42" value="" style="line;strokeWidth=1;fillColor=none;align=left;verticalAlign=middle;spacingTop=-1;spacingLeft=3;spacingRight=3;rotatable=0;labelPosition=right;points=[];portConstraint=eastwest;" parent="k0gJWanafnydEsKdQi3P-40" vertex="1"><mxGeometry y="52" width="160" height="8" as="geometry"/></mxCell><mxCell id="k0gJWanafnydEsKdQi3P-43" value="+ method(type): type" style="text;strokeColor=none;fillColor=none;align=left;verticalAlign=top;spacingLeft=4;spacingRight=4;overflow=hidden;rotatable=0;points=[[0,0.5],[1,0.5]];portConstraint=eastwest;" parent="k0gJWanafnydEsKdQi3P-40" vertex="1"><mxGeometry y="60" width="160" height="26" as="geometry"/></mxCell><mxCell id="k0gJWanafnydEsKdQi3P-45" value="Merchant Adjemin Pay" style="swimlane;fontStyle=1;align=center;verticalAlign=top;childLayout=stackLayout;horizontal=1;startSize=26;horizontalStack=0;resizeParent=1;resizeParentMax=0;resizeLast=0;collapsible=1;marginBottom=0;" parent="1" vertex="1"><mxGeometry x="-390" y="920" width="160" height="86" as="geometry"/></mxCell><mxCell id="k0gJWanafnydEsKdQi3P-46" value="+ field: type" style="text;strokeColor=none;fillColor=none;align=left;verticalAlign=top;spacingLeft=4;spacingRight=4;overflow=hidden;rotatable=0;points=[[0,0.5],[1,0.5]];portConstraint=eastwest;" parent="k0gJWanafnydEsKdQi3P-45" vertex="1"><mxGeometry y="26" width="160" height="26" as="geometry"/></mxCell><mxCell id="k0gJWanafnydEsKdQi3P-47" value="" style="line;strokeWidth=1;fillColor=none;align=left;verticalAlign=middle;spacingTop=-1;spacingLeft=3;spacingRight=3;rotatable=0;labelPosition=right;points=[];portConstraint=eastwest;" parent="k0gJWanafnydEsKdQi3P-45" vertex="1"><mxGeometry y="52" width="160" height="8" as="geometry"/></mxCell><mxCell id="k0gJWanafnydEsKdQi3P-48" value="+ method(type): type" style="text;strokeColor=none;fillColor=none;align=left;verticalAlign=top;spacingLeft=4;spacingRight=4;overflow=hidden;rotatable=0;points=[[0,0.5],[1,0.5]];portConstraint=eastwest;" parent="k0gJWanafnydEsKdQi3P-45" vertex="1"><mxGeometry y="60" width="160" height="26" as="geometry"/></mxCell><mxCell id="k0gJWanafnydEsKdQi3P-54" value="Merchant Cinet Pay" style="swimlane;fontStyle=1;align=center;verticalAlign=top;childLayout=stackLayout;horizontal=1;startSize=26;horizontalStack=0;resizeParent=1;resizeParentMax=0;resizeLast=0;collapsible=1;marginBottom=0;" parent="1" vertex="1"><mxGeometry x="-83" y="920" width="160" height="86" as="geometry"/></mxCell><mxCell id="k0gJWanafnydEsKdQi3P-55" value="+ field: type" style="text;strokeColor=none;fillColor=none;align=left;verticalAlign=top;spacingLeft=4;spacingRight=4;overflow=hidden;rotatable=0;points=[[0,0.5],[1,0.5]];portConstraint=eastwest;" parent="k0gJWanafnydEsKdQi3P-54" vertex="1"><mxGeometry y="26" width="160" height="26" as="geometry"/></mxCell><mxCell id="k0gJWanafnydEsKdQi3P-56" value="" style="line;strokeWidth=1;fillColor=none;align=left;verticalAlign=middle;spacingTop=-1;spacingLeft=3;spacingRight=3;rotatable=0;labelPosition=right;points=[];portConstraint=eastwest;" parent="k0gJWanafnydEsKdQi3P-54" vertex="1"><mxGeometry y="52" width="160" height="8" as="geometry"/></mxCell><mxCell id="k0gJWanafnydEsKdQi3P-57" value="+ method(type): type" style="text;strokeColor=none;fillColor=none;align=left;verticalAlign=top;spacingLeft=4;spacingRight=4;overflow=hidden;rotatable=0;points=[[0,0.5],[1,0.5]];portConstraint=eastwest;" parent="k0gJWanafnydEsKdQi3P-54" vertex="1"><mxGeometry y="60" width="160" height="26" as="geometry"/></mxCell><mxCell id="k0gJWanafnydEsKdQi3P-59" value="" style="endArrow=block;dashed=1;endFill=0;endSize=12;html=1;edgeStyle=orthogonalEdgeStyle;" parent="1" source="k0gJWanafnydEsKdQi3P-54" target="k0gJWanafnydEsKdQi3P-13" edge="1"><mxGeometry width="160" relative="1" as="geometry"><mxPoint x="-242.36868686868684" y="939" as="sourcePoint"/><mxPoint x="-184.79292929292933" y="819" as="targetPoint"/><Array as="points"><mxPoint x="-33" y="869"/><mxPoint x="-168" y="869"/></Array></mxGeometry></mxCell><mxCell id="k0gJWanafnydEsKdQi3P-60" value="&lt;p style=&quot;margin: 0px ; margin-top: 4px ; text-align: center&quot;&gt;«interface»&lt;br&gt;&lt;b&gt;Payment Service&lt;/b&gt;&lt;/p&gt;&lt;hr size=&quot;1&quot;&gt;&lt;p style=&quot;margin: 0px ; margin-left: 4px&quot;&gt;+ payment(Transaction transaction,Account account)&lt;/p&gt;&lt;p style=&quot;margin: 0px ; margin-left: 4px&quot;&gt;+ checkTransactionStatus(Transaction transaction,Account): Notification Transaction&lt;/p&gt;&lt;p style=&quot;margin: 0px ; margin-left: 4px&quot;&gt;+ transactions(Account account) : List&amp;lt;TransactionNotification&amp;gt;&lt;/p&gt;" style="verticalAlign=top;align=left;overflow=fill;fontSize=12;fontFamily=Helvetica;html=1;" parent="1" vertex="1"><mxGeometry x="-390" y="50" width="460" height="100" as="geometry"/></mxCell><mxCell id="k0gJWanafnydEsKdQi3P-61" value="&lt;p style=&quot;margin: 0px ; margin-top: 4px ; text-align: center&quot;&gt;«interface»&lt;br&gt;&lt;b&gt;Notification Transaction&lt;/b&gt;&lt;/p&gt;&lt;hr size=&quot;1&quot;&gt;&lt;p style=&quot;margin: 0px ; margin-left: 4px&quot;&gt;+ status(): String&lt;/p&gt;&lt;p style=&quot;margin: 0px ; margin-left: 4px&quot;&gt;+ createdDate(): LocaDateTime&lt;/p&gt;&lt;p style=&quot;margin: 0px ; margin-left: 4px&quot;&gt;+ updatedDate(): LocalDateTime&lt;/p&gt;&lt;p style=&quot;margin: 0px ; margin-left: 4px&quot;&gt;+ canceledDate(): LocalDateTime&lt;/p&gt;" style="verticalAlign=top;align=left;overflow=fill;fontSize=12;fontFamily=Helvetica;html=1;" parent="1" vertex="1"><mxGeometry x="-1550" y="370" width="260" height="106.25" as="geometry"/></mxCell><mxCell id="k0gJWanafnydEsKdQi3P-62" value="Extends" style="endArrow=block;endSize=16;endFill=0;html=1;" parent="1" source="k0gJWanafnydEsKdQi3P-61" target="k0gJWanafnydEsKdQi3P-15" edge="1"><mxGeometry width="160" relative="1" as="geometry"><mxPoint x="-1470" y="670" as="sourcePoint"/><mxPoint x="-1310" y="670" as="targetPoint"/></mxGeometry></mxCell><mxCell id="k0gJWanafnydEsKdQi3P-63" value="Extends" style="endArrow=block;endSize=16;endFill=0;html=1;" parent="1" source="k0gJWanafnydEsKdQi3P-20" target="k0gJWanafnydEsKdQi3P-60" edge="1"><mxGeometry width="160" relative="1" as="geometry"><mxPoint x="-500" y="225" as="sourcePoint"/><mxPoint x="-340" y="225" as="targetPoint"/></mxGeometry></mxCell><mxCell id="k0gJWanafnydEsKdQi3P-66" value="" style="endArrow=block;dashed=1;endFill=0;endSize=12;html=1;edgeStyle=orthogonalEdgeStyle;" parent="1" source="k0gJWanafnydEsKdQi3P-45" target="k0gJWanafnydEsKdQi3P-13" edge="1"><mxGeometry width="160" relative="1" as="geometry"><mxPoint x="-23" y="939" as="sourcePoint"/><mxPoint x="-168" y="819" as="targetPoint"/><Array as="points"><mxPoint x="-323" y="869"/><mxPoint x="-168" y="869"/></Array></mxGeometry></mxCell><mxCell id="k0gJWanafnydEsKdQi3P-67" value="Orange" style="swimlane;fontStyle=1;childLayout=stackLayout;horizontal=1;startSize=26;fillColor=none;horizontalStack=0;resizeParent=1;resizeParentMax=0;resizeLast=0;collapsible=1;marginBottom=0;" parent="1" vertex="1"><mxGeometry x="410" y="461" width="140" height="78" as="geometry"/></mxCell><mxCell id="k0gJWanafnydEsKdQi3P-68" value="+ field: type" style="text;strokeColor=none;fillColor=none;align=left;verticalAlign=top;spacingLeft=4;spacingRight=4;overflow=hidden;rotatable=0;points=[[0,0.5],[1,0.5]];portConstraint=eastwest;" parent="k0gJWanafnydEsKdQi3P-67" vertex="1"><mxGeometry y="26" width="140" height="26" as="geometry"/></mxCell><mxCell id="k0gJWanafnydEsKdQi3P-69" value="+ field: type" style="text;strokeColor=none;fillColor=none;align=left;verticalAlign=top;spacingLeft=4;spacingRight=4;overflow=hidden;rotatable=0;points=[[0,0.5],[1,0.5]];portConstraint=eastwest;" parent="k0gJWanafnydEsKdQi3P-67" vertex="1"><mxGeometry y="52" width="140" height="26" as="geometry"/></mxCell><mxCell id="k0gJWanafnydEsKdQi3P-71" value="Moov" style="swimlane;fontStyle=1;childLayout=stackLayout;horizontal=1;startSize=26;fillColor=none;horizontalStack=0;resizeParent=1;resizeParentMax=0;resizeLast=0;collapsible=1;marginBottom=0;" parent="1" vertex="1"><mxGeometry x="574" y="461" width="140" height="78" as="geometry"/></mxCell><mxCell id="k0gJWanafnydEsKdQi3P-72" value="+ field: type" style="text;strokeColor=none;fillColor=none;align=left;verticalAlign=top;spacingLeft=4;spacingRight=4;overflow=hidden;rotatable=0;points=[[0,0.5],[1,0.5]];portConstraint=eastwest;" parent="k0gJWanafnydEsKdQi3P-71" vertex="1"><mxGeometry y="26" width="140" height="26" as="geometry"/></mxCell><mxCell id="k0gJWanafnydEsKdQi3P-73" value="+ field: type" style="text;strokeColor=none;fillColor=none;align=left;verticalAlign=top;spacingLeft=4;spacingRight=4;overflow=hidden;rotatable=0;points=[[0,0.5],[1,0.5]];portConstraint=eastwest;" parent="k0gJWanafnydEsKdQi3P-71" vertex="1"><mxGeometry y="52" width="140" height="26" as="geometry"/></mxCell><mxCell id="k0gJWanafnydEsKdQi3P-75" value="MTN" style="swimlane;fontStyle=1;childLayout=stackLayout;horizontal=1;startSize=26;fillColor=none;horizontalStack=0;resizeParent=1;resizeParentMax=0;resizeLast=0;collapsible=1;marginBottom=0;" parent="1" vertex="1"><mxGeometry x="250" y="461" width="140" height="78" as="geometry"/></mxCell><mxCell id="k0gJWanafnydEsKdQi3P-76" value="+ field: type" style="text;strokeColor=none;fillColor=none;align=left;verticalAlign=top;spacingLeft=4;spacingRight=4;overflow=hidden;rotatable=0;points=[[0,0.5],[1,0.5]];portConstraint=eastwest;" parent="k0gJWanafnydEsKdQi3P-75" vertex="1"><mxGeometry y="26" width="140" height="26" as="geometry"/></mxCell><mxCell id="k0gJWanafnydEsKdQi3P-77" value="+ field: type" style="text;strokeColor=none;fillColor=none;align=left;verticalAlign=top;spacingLeft=4;spacingRight=4;overflow=hidden;rotatable=0;points=[[0,0.5],[1,0.5]];portConstraint=eastwest;" parent="k0gJWanafnydEsKdQi3P-75" vertex="1"><mxGeometry y="52" width="140" height="26" as="geometry"/></mxCell><mxCell id="k0gJWanafnydEsKdQi3P-80" value="" style="endArrow=block;dashed=1;endFill=0;endSize=12;html=1;edgeStyle=orthogonalEdgeStyle;" parent="1" source="k0gJWanafnydEsKdQi3P-75" target="k0gJWanafnydEsKdQi3P-19" edge="1"><mxGeometry width="160" relative="1" as="geometry"><mxPoint x="270" y="390" as="sourcePoint"/><mxPoint x="430" y="390" as="targetPoint"/></mxGeometry></mxCell><mxCell id="k0gJWanafnydEsKdQi3P-81" value="" style="endArrow=block;dashed=1;endFill=0;endSize=12;html=1;" parent="1" source="k0gJWanafnydEsKdQi3P-67" target="k0gJWanafnydEsKdQi3P-19" edge="1"><mxGeometry width="160" relative="1" as="geometry"><mxPoint x="361.0050000000001" y="471" as="sourcePoint"/><mxPoint x="457.1999999999998" y="350" as="targetPoint"/></mxGeometry></mxCell><mxCell id="k0gJWanafnydEsKdQi3P-82" value="" style="endArrow=block;dashed=1;endFill=0;endSize=12;html=1;edgeStyle=orthogonalEdgeStyle;" parent="1" source="k0gJWanafnydEsKdQi3P-71" target="k0gJWanafnydEsKdQi3P-19" edge="1"><mxGeometry width="160" relative="1" as="geometry"><mxPoint x="501.0749999999998" y="471" as="sourcePoint"/><mxPoint x="492" y="350" as="targetPoint"/><Array as="points"><mxPoint x="660" y="400"/><mxPoint x="479" y="400"/></Array></mxGeometry></mxCell><mxCell id="k0gJWanafnydEsKdQi3P-83" value="&lt;p style=&quot;margin: 0px ; margin-top: 4px ; text-align: center&quot;&gt;«interface»&lt;br&gt;&lt;b&gt;Account&lt;/b&gt;&lt;br&gt;&lt;/p&gt;&lt;hr size=&quot;1&quot;&gt;&lt;p style=&quot;margin: 0px ; margin-left: 4px&quot;&gt;&lt;span&gt;+ key():String&lt;/span&gt;&lt;br&gt;&lt;/p&gt;&amp;nbsp;+ authentication(): String&lt;p style=&quot;margin: 0px ; margin-left: 4px&quot;&gt;&lt;br&gt;&lt;/p&gt;" style="verticalAlign=top;align=left;overflow=fill;fontSize=12;fontFamily=Helvetica;html=1;" parent="1" vertex="1"><mxGeometry x="-263" y="580" width="190" height="80" as="geometry"/></mxCell><mxCell id="VsxWtAFYQBEIj0mqTAWM-2" value="«interface»&lt;br&gt;&lt;b&gt;Money&lt;br&gt;&lt;/b&gt;" style="html=1;" parent="1" vertex="1"><mxGeometry x="-1200" y="70" width="110" height="50" as="geometry"/></mxCell><mxCell id="2" value="&lt;p style=&quot;margin: 0px ; margin-top: 4px ; text-align: center&quot;&gt;«interface»&lt;br&gt;&lt;b&gt;Credential Access&lt;/b&gt;&lt;br&gt;&lt;/p&gt;&lt;hr size=&quot;1&quot;&gt;&lt;p style=&quot;margin: 0px ; margin-left: 4px&quot;&gt;&lt;span&gt;+ username():String&lt;/span&gt;&lt;br&gt;&lt;/p&gt;&amp;nbsp;+ password(): String&lt;p style=&quot;margin: 0px ; margin-left: 4px&quot;&gt;&lt;br&gt;&lt;/p&gt;" style="verticalAlign=top;align=left;overflow=fill;fontSize=12;fontFamily=Helvetica;html=1;" vertex="1" parent="1"><mxGeometry x="225" y="630" width="190" height="80" as="geometry"/></mxCell></root></mxGraphModel></diagram></mxfile>